<svg width="32" height="32" viewBox="0 0 32 32" fill="none" xmlns="http://www.w3.org/2000/svg">
  <!-- C arc — open on the right -->
  <path d="M22 10 A10 10 0 1 0 22 22" stroke="#111111" stroke-width="2" stroke-linecap="round" fill="none" />
  <!-- G crossbar -->
  <line x1="22" y1="16" x2="16" y2="16" stroke="#111111" stroke-width="2" stroke-linecap="round" />
  <!-- Dendritic edges — tree-graph connections -->
  <line x1="16" y1="16" x2="10" y2="8" stroke="#111111" stroke-width="0.8" opacity="0.5" />
  <line x1="16" y1="16" x2="7" y2="14" stroke="#111111" stroke-width="0.8" opacity="0.5" />
  <line x1="16" y1="16" x2="7" y2="20" stroke="#111111" stroke-width="0.8" opacity="0.5" />
  <line x1="16" y1="16" x2="10" y2="25" stroke="#111111" stroke-width="0.8" opacity="0.5" />
  <line x1="10" y1="8" x2="14" y2="6" stroke="#111111" stroke-width="0.8" opacity="0.5" />
  <line x1="10" y1="25" x2="14" y2="27" stroke="#111111" stroke-width="0.8" opacity="0.5" />
  <!-- Network nodes -->
  <circle cx="16" cy="16" r="1.8" fill="#111111" />
  <circle cx="10" cy="8" r="1.3" fill="#111111" />
  <circle cx="7" cy="14" r="1.3" fill="#111111" />
  <circle cx="7" cy="20" r="1.3" fill="#111111" />
  <circle cx="10" cy="25" r="1.3" fill="#111111" />
  <circle cx="14" cy="6" r="1.0" fill="#111111" />
  <circle cx="14" cy="27" r="1.0" fill="#111111" />
  <circle cx="22" cy="16" r="1.3" fill="#111111" />
</svg>
